<svg xmlns="http://www.w3.org/2000/svg" height="40" viewBox="0 -960 960 960" width="40"><path fill="#fff"  d="M347.692-435.384h264.616v-5.641q0-30.872-36.975-50.59-36.974-19.718-95.333-19.718t-95.333 19.718q-36.975 19.718-36.975 50.59v5.641ZM480-584.051q24.171 0 41.111-16.941 16.94-16.94 16.94-41.111 0-24.17-16.94-41.111-16.94-16.94-41.111-16.94-24.171 0-41.111 16.94-16.94 16.941-16.94 41.111 0 24.171 16.94 41.111 16.94 16.941 41.111 16.941ZM120-156.923v-624.616q0-24.577 16.942-41.519Q153.884-840 178.461-840h603.078q24.577 0 41.519 16.942Q840-806.116 840-781.539v443.078q0 24.577-16.942 41.519Q806.116-280 781.539-280H243.077L120-156.923Zm108.256-156.923h553.283q9.231 0 16.923-7.692 7.692-7.692 7.692-16.923v-443.078q0-9.231-7.692-16.923-7.692-7.692-16.923-7.692H178.461q-9.231 0-16.923 7.692-7.692 7.692-7.692 16.923v543.975l74.41-76.282Zm-74.41 0v-492.308 492.308Z"/></svg>