<svg xmlns="http://www.w3.org/2000/svg" height="40" viewBox="0 -960 960 960" width="40"><path fill="#99cc99" d="M218.461-160q-23.91 0-41.186-17.275Q160-194.551 160-218.461v-523.078q0-23.91 17.275-41.186Q194.551-800 218.461-800h199.334q-7.718-29.949 11.346-54.975Q448.205-880 480-880q32.564 0 51.628 25.025 19.064 25.026 10.577 54.975h199.334q23.91 0 41.186 17.275Q800-765.449 800-741.539v256.616q-8.743-2.948-17.154-4.987-8.41-2.038-16.692-4.269v-247.36q0-9.231-7.692-16.923-7.692-7.692-16.923-7.692H218.461q-9.231 0-16.923 7.692-7.692 7.692-7.692 16.923v523.078q0 9.231 7.692 16.923 7.692 7.692 16.923 7.692h247.181q1.615 9.282 3.412 17.73 1.797 8.449 5.075 16.116H218.461Zm-24.615-75.949v42.103-572.308 271.975-3.154 261.384ZM300-309.231h172.949q2.898-8.436 6.218-16.769 3.321-8.333 7.475-17.077H300v33.846Zm0-153.846h294.001q13.846-6.718 25.038-11.641t24.038-9.41v-12.795H300v33.846Zm0-153.846h360v-33.846H300v33.846ZM479.893-784.41q13.046 0 22.474-9.064 9.428-9.065 9.428-22.475 0-13.41-9.428-22.474t-22.474-9.064q-13.047 0-22.111 9.064t-9.064 22.474q0 13.41 9.064 22.475 9.064 9.064 22.111 9.064ZM723.965-75.538q-64.985 0-110.501-45.955-45.515-45.955-45.515-110.09 0-65.758 45.509-111.216 45.509-45.457 110.84-45.457 64.651 0 110.254 45.457 45.602 45.458 45.602 111.216 0 64.135-45.602 110.09-45.603 45.955-110.587 45.955ZM709.949-114h28.667v-103.077h103.077v-28.666H738.616V-348.82h-28.667v103.077H606.872v28.666h103.077V-114Z"/></svg>