<svg xmlns="http://www.w3.org/2000/svg" height="40" viewBox="0 -960 960 960" width="40"><path fill="#99cc99" d="M479.909-484.615q-41.678 0-70.794-29.116Q380-542.846 380-584.524q0-40.861 29.115-70.476 29.116-29.616 70.794-29.616 40.86 0 70.476 29.616Q580-625.385 580-584.524q0 41.678-29.615 70.793-29.616 29.116-70.476 29.116Zm-.143-33.847q27.696 0 47.042-19.221t19.346-46.699q0-27.695-19.247-47.041-19.247-19.346-47.526-19.346-27.253 0-46.394 19.246-19.141 19.247-19.141 47.526 0 27.253 19.221 46.394 19.222 19.141 46.699 19.141ZM260-275.384v-56.001q0-18.032 10.324-32.765 10.325-14.733 26.522-23.978 41.795-23.667 88.265-35.462 46.47-11.795 94.782-11.795t94.889 11.795q46.577 11.795 88.372 35.462 16.197 9.245 26.522 23.978Q700-349.417 700-331.385v56.001H260Zm220-126.154q-46.646 0-93.9 13.794-47.254 13.795-92.818 40.872v38.411h373.436v-39.18q-44.795-27.077-92.433-40.487-47.639-13.41-94.285-13.41Zm0-183.077Zm0 276.154H666.718 293.282 480ZM178.716-120q-24.832 0-41.774-16.942T120-178.716v-139.027h33.846v139.282q0 9.231 7.692 16.923 7.692 7.692 16.923 7.692h139.282V-120H178.716ZM120-642.256v-139.028q0-24.832 16.942-41.774T178.716-840h139.027v33.846H178.461q-9.231 0-16.923 7.692-7.692 7.692-7.692 16.923v139.283H120ZM642.256-120v-33.846h139.283q9.231 0 16.923-7.692 7.692-7.692 7.692-16.923v-139.282H840v139.027q0 24.832-16.942 41.774T781.284-120H642.256Zm163.898-522.256v-139.283q0-9.231-7.692-16.923-7.692-7.692-16.923-7.692H642.256V-840h139.028q24.832 0 41.774 16.942T840-781.284v139.028h-33.846Z"/></svg>