<svg xmlns="http://www.w3.org/2000/svg" height="40" viewBox="0 -960 960 960" width="40"><path d="M329.385-209.23q-13.577 0-23.712-10.135t-10.135-23.712v-73.846h112.411v-141.333q-39.564 9.282-81.295-.885t-68.859-37.218v-60.513h-58.41L87.692-669.077q34.462-27.487 77.513-43.923 43.051-16.436 88.538-16.436 39.425 0 79.533 12.538 40.109 12.539 74.673 39.436v-79.461H800v472.051q0 31.898-21.872 53.77-21.871 21.872-53.256 21.872H329.385Zm112.41-107.693h241.282v32.051q0 17.975 11.91 29.885 11.911 11.91 29.885 11.91 17.462 0 29.372-11.91t11.91-29.885v-438.205H441.795v74.205l220.154 220.154v24.256h-24.256l-125.59-125.077-25.539 26.001q-11.025 11.846-21.654 19.051-10.628 7.205-23.115 13.359v154.205ZM214.359-590.718h77.282v78.769q21.231 13.59 40.154 19.026 18.923 5.436 36.517 5.436 27.611 0 52.393-11.59t42.372-29.487l24.769-25.231-73.897-73.897q-33.067-33.565-74.034-50.731-40.966-17.167-86.172-17.167-31.333 0-60.333 8.923t-52.128 22.359l73.077 73.59Zm434.872 307.641H329.385v40h334.256q-7.308-7.256-10.859-17.837-3.551-10.582-3.551-22.163Zm-319.846 40v-40 40Z"/></svg>