<svg xmlns="http://www.w3.org/2000/svg" height="40" viewBox="0 -960 960 960" width="40"><path fill="#99cc99" d="M256.856-140q-48.6 0-82.728-34.195Q140-208.391 140-256.99q0-48.6 34.176-82.728 34.176-34.128 82.747-34.128H340v-212.308h-83.077q-48.571 0-82.747-34.195Q140-654.545 140-703.144q0-48.6 34.195-82.728Q208.391-820 256.99-820q48.6 0 82.728 34.176 34.128 34.176 34.128 82.747V-620h212.308v-83.077q0-48.571 34.195-82.747Q654.545-820 703.144-820q48.6 0 82.728 34.195Q820-751.609 820-703.01q0 48.6-34.176 82.728-34.176 34.128-82.747 34.128H620v212.308h83.077q48.571 0 82.747 34.195Q820-305.455 820-256.856q0 48.6-34.195 82.728Q751.609-140 703.01-140q-48.6 0-82.728-34.176-34.128-34.176-34.128-82.747V-340H373.846v83.077q0 48.571-34.195 82.747Q305.455-140 256.856-140Zm-.011-33.846q34.411 0 58.783-24.316Q340-222.479 340-256.923V-340h-83.077q-34.444 0-58.761 24.293-24.316 24.294-24.316 58.706 0 34.411 24.293 58.783 24.294 24.372 58.706 24.372Zm446.154 0q34.411 0 58.783-24.293 24.372-24.294 24.372-58.706 0-34.411-24.316-58.783Q737.521-340 703.077-340H620v83.077q0 34.444 24.293 58.761 24.294 24.316 58.706 24.316Zm-329.153-200h212.308v-212.308H373.846v212.308ZM256.923-620H340v-83.077q0-34.444-24.293-58.761-24.294-24.316-58.706-24.316-34.411 0-58.783 24.293-24.372 24.294-24.372 58.706 0 34.411 24.316 58.783Q222.479-620 256.923-620ZM620-620h83.077q34.444 0 58.761-24.293 24.316-24.294 24.316-58.706 0-34.411-24.293-58.783-24.294-24.372-58.706-24.372-34.411 0-58.783 24.316Q620-737.521 620-703.077V-620Z"/></svg>