<svg xmlns="http://www.w3.org/2000/svg" height="40" viewBox="0 -960 960 960" width="40"><path fill="#99cc99" d="M399.487-359.179 480-422.718l78.821 62-30.411-98.359 81.641-64.513H512.41L480-621.538l-32.41 97.948h-97.641l80.461 64.513-30.923 99.898ZM178.461-200q-24.077 0-41.269-17.192Q120-234.384 120-258.461v-83.257q0-8.025 3.82-15.436 3.821-7.41 11.436-11.102 30.718-16.923 48.705-46.513 17.988-29.59 17.988-65.231 0-35.487-17.988-65.154-17.987-29.667-48.705-46.59-7.615-3.692-11.436-11.102-3.82-7.411-3.82-15.436v-83.257q0-24.077 17.192-41.269Q154.384-760 178.461-760h603.078q24.077 0 41.269 17.192Q840-725.616 840-701.539v83.257q0 8.025-3.82 15.436-3.821 7.41-10.923 11.102-31.231 16.923-49.218 46.59-17.988 29.667-17.988 65.154 0 35.641 17.988 65.231 17.987 29.59 49.218 46.513 7.102 3.692 10.923 11.102 3.82 7.411 3.82 15.436v83.257q0 24.077-17.192 41.269Q805.616-200 781.539-200H178.461Zm0-33.846h603.078q10.769 0 17.692-6.923t6.923-17.692v-79.488Q769-361.077 746.603-398.474 724.205-435.872 724.205-480q0-44.128 22.398-81.526 22.397-37.397 59.551-60.525v-79.488q0-10.769-6.923-17.692t-17.692-6.923H178.461q-10.769 0-17.692 6.923t-6.923 17.692v79.488q37.82 23.128 59.885 60.525 22.064 37.398 22.064 81.526 0 44.128-22.064 81.526-22.065 37.397-59.885 60.525v79.488q0 10.769 6.923 17.692t17.692 6.923ZM480-480Z"/></svg>