<svg xmlns="http://www.w3.org/2000/svg" height="40" viewBox="0 -960 960 960" width="40"><path fill="#fff"  d="M696.103-188.461 585.667-299.743 609-322.564l87.103 86.436 172.102-172.103 23.334 24.334-195.436 195.436ZM120-156.923v-624.616q0-24.577 16.942-41.519Q153.884-840 178.461-840h603.078q24.577 0 41.519 16.942Q840-806.116 840-781.539v284.616h-33.846v-284.616q0-9.231-7.692-16.923-7.692-7.692-16.923-7.692H178.461q-9.231 0-16.923 7.692-7.692 7.692-7.692 16.923v543.975l74.41-76.282h274.821V-280h-260L120-156.923Zm33.846-156.923v55.384-547.692 492.308Z"/></svg>