<svg xmlns="http://www.w3.org/2000/svg" height="40" viewBox="0 -960 960 960" width="40"><path fill="#fff" d="M207.538-236Q175-279.384 157.5-330.808 140-382.231 140-440q0-142.308 98.846-241.077T480-779.846q19.385 0 33.333.333 13.949.333 32.513.487l-89.949-89.948 23.334-23.334L611.539-760 479.231-627.692l-24.334-24.334 92.847-92.846q-18.769-.308-34.359-.718Q497.795-746 480-746q-126.872 0-216.513 89.564T173.846-440q0 49.462 15.039 96.026 15.038 46.564 43.756 83.641L207.538-236Zm244.052 6.769q-4.359-29.615-18.372-52.166t-29.449-43.744q-15.436-21.192-27.782-43.179-12.346-21.987-12.346-50.141 0-47.795 34.282-82.077T480-534.82q47.795 0 82.077 34.282t34.282 82.077q0 27.641-12.346 49.756-12.346 22.116-27.782 43.436-15.436 21.321-29.449 43.872-14.013 22.551-18.372 52.166h-56.82Zm.718 96.923v-41.538h55.384v41.538h-55.384ZM752.462-236l-24.436-24.179q26.923-36.257 42.525-82.257 15.603-46 15.603-97.564 0-64.462-24.808-121.551-24.807-57.09-71.064-100.27l24.487-24.487q49.539 46.923 77.385 109.731Q820-513.769 820-440q0 57.769-17.5 109.192Q785-279.384 752.462-236Z"/></svg>