<svg xmlns="http://www.w3.org/2000/svg" height="40" viewBox="0 -960 960 960" width="40"><path fill="#99cc99" d="M141.539-568.872q0-73.846 29.192-137.449 29.192-63.602 79.628-109.884l23.769 24.359q-45.665 42.09-72.204 99.093-26.539 57.004-26.539 123.881h-33.846Zm643.076 0q0-66.667-26.539-124.134t-72.204-99.609l23.769-23.59q50.436 46.282 79.628 109.855 29.192 63.572 29.192 137.478h-33.846ZM200-209.231v-33.846h64.615v-324.205q0-78.449 49.282-138.814Q363.179-766.462 440-780.359V-800q0-16.539 11.731-28.269Q463.461-840 480-840q16.539 0 28.269 11.731Q520-816.539 520-800v19.641q76.821 13.897 126.103 74.263 49.282 60.365 49.282 138.814v324.205H760v33.846H200Zm280-286.974Zm0 391.59q-26.846 0-45.731-18.885-18.884-18.885-18.884-45.731h129.23q0 26.846-18.884 45.731-18.885 18.885-45.731 18.885ZM298.461-243.077h363.078v-324.205q0-75.333-53.103-128.436Q555.333-748.821 480-748.821t-128.436 53.103q-53.103 53.103-53.103 128.436v324.205Z"/></svg>