<svg xmlns="http://www.w3.org/2000/svg" height="40" viewBox="0 -960 960 960" width="40"><path fill="#99cc99" d="M295.243-115.384q-24.435 0-41.019-16.725-16.583-16.725-16.583-41.161 0-23.679 16.725-40.384 16.725-16.705 41.16-16.705 24.436 0 41.019 16.847t16.583 40.782q0 23.935-16.725 40.64-16.725 16.706-41.16 16.706Zm376.513 0q-24.224 0-40.656-16.725-16.433-16.725-16.433-41.161 0-23.679 16.567-40.384 16.568-16.705 40.783-16.705 24.214 0 40.919 16.847t16.705 40.782q0 23.935-16.725 40.64-16.725 16.706-41.16 16.706ZM480-581.128q-9.915 0-16.291-6.709-6.376-6.709-6.376-15.958 0-9.915 6.376-16.547 6.376-6.632 16.291-6.632t16.291 6.632q6.376 6.632 6.376 16.291t-6.376 16.291q-6.376 6.632-16.291 6.632ZM463.077-700v-200h33.846v200h-33.846ZM295.385-317.487q-34.026 0-50.026-27.885-16-27.884-.128-56.525l62.256-111.282-149.025-312.975H86.974V-860h93.052l163.846 345.744h283.462l147.205-264.616 29.538 15.692-140.333 253.642q-8.2 14.383-21.164 21.755-12.964 7.373-28.99 7.373H327.077l-53.949 98.308q-6.154 9.23-.384 20 5.769 10.769 17.307 10.769h439.59v33.846H295.385Z"/></svg>