<svg xmlns="http://www.w3.org/2000/svg" height="40" viewBox="0 -960 960 960" width="40"><path fill="#99cc99" d="M640-529.231q12.385 0 21.577-9.192 9.192-9.192 9.192-21.577 0-12.385-9.192-21.577-9.192-9.192-21.577-9.192-12.385 0-21.577 9.192-9.192 9.192-9.192 21.577 0 12.385 9.192 21.577 9.192 9.192 21.577 9.192Zm-320-96.923h200V-660H320v33.846ZM210-160q-29.385-104.769-59.693-207.884Q120-471 120-580q0-75.077 52.461-127.539Q224.923-760 300-760h220q25.923-34.154 61.269-57.077Q616.615-840 660-840q8.077 0 14.039 5.961Q680-828.077 680-820q0 2.154-.731 4.308-.73 2.154-1.192 4.077-7.077 17.923-11.346 36.73-4.269 18.808-7.808 37.731L776.077-620H840v209.769l-105.307 34.693L670-160H520v-80H360v80H210Zm25.641-33.846h90.513v-80h227.692v80h91.026l62.154-207.128 99.128-33.821v-151.359h-43.898L626.154-722.256q.154-21.795 3.628-41.834 3.475-20.038 10.167-39.551-31.41 8.307-56.539 28.577-25.128 20.269-40.461 48.91H300q-60.96 0-103.557 42.597T153.846-580q0 99.675 27.564 194.774 27.564 95.098 54.231 191.38ZM480-499.128Z"/></svg>