<svg xmlns="http://www.w3.org/2000/svg" height="40" viewBox="0 -960 960 960" width="40"><path fill="#fff" d="M585.026-86.154q-21.667 0-36.218-14.807-14.552-14.808-14.552-35.962v-236.923q0-21.154 14.552-35.962 14.551-14.807 36.218-14.807h236.923q21.154 0 35.962 14.807 14.807 14.808 14.807 35.962v236.923q0 21.154-14.807 35.962-14.808 14.807-35.962 14.807H585.026Zm0-50.769h236.923v-27.384q-21.154-26.385-51.769-41.808-30.616-15.423-66.693-15.423t-66.949 15.423q-30.871 15.423-51.512 41.808v27.384Zm118.461-118.462q21.154 0 35.962-14.807 14.808-14.808 14.808-35.962 0-21.154-14.808-35.961-14.808-14.808-35.962-14.808-21.666 0-36.218 14.808-14.551 14.807-14.551 35.961 0 21.154 14.551 35.962 14.552 14.807 36.218 14.807ZM480-480Zm-1.897-96.923q-40.206 0-68.565 28.102-28.359 28.103-28.359 68.821 0 30.564 15.898 54.051 15.897 23.488 41.795 35.18v-38.923q-10.513-8.154-17.18-22.398-6.666-14.243-6.666-27.91 0-26.128 18.474-44.603 18.474-18.474 44.603-18.474 15.128 0 27.897 6.397 12.769 6.398 20.923 16.68h38.872q-10.949-25.795-34.423-41.359-23.475-15.564-53.269-15.564ZM410.718-120l-15.59-114.872q-21.102-6.589-46.115-20.512Q324-269.308 306.59-285.256l-106.026 47.025-69.436-122.41 93.513-69.692q-1.923-11.667-3.154-24.449-1.231-12.782-1.231-24.449 0-10.897 1.231-23.551 1.231-12.654 3.154-26.885l-93.513-70.205 69.436-120.359 105.256 45.744q19.718-16.205 43.231-29.744 23.513-13.538 45.308-20.231L410.718-840h138.564l15.59 115.641q24.436 8.897 45.423 20.82 20.987 11.923 40.808 29.052l108.846-45.744 68.923 120.359-97.769 73.718q.256 2.359.512 3.487.257 1.129 1.026 2.667h-34.846q-1-5.308-1.872-10.321-.872-5.012-2.359-10.32l91.334-68.436-39.923-69.128-104.18 43.897q-18.821-20.897-49.038-39.141-30.218-18.244-57.731-22.449l-12.898-110.256h-82.179l-12.462 109.487q-31.718 6.308-57.782 21.141-26.064 14.834-51.295 40.372l-102.385-43.051-39.923 69.128 89.539 66.051q-4.846 14.282-6.923 30.282t-2.077 33.513q0 15.898 2.077 31.128 2.077 15.231 6.154 30.283l-88.77 66.897 39.923 69.128 101.616-43.128q24.308 24.897 55.744 40.821 31.435 15.923 66.487 23.692V-120h-28.154Z"/></svg>