<svg xmlns="http://www.w3.org/2000/svg" height="40" viewBox="0 -960 960 960" width="40"><path fill="#99cc99" d="M198.461-365.231 80.359-483.334l20.102-20.359 80.359 80.206q-9.384-36.488-14.333-72.847-4.949-36.359-4.949-73.615 0-73.795 23.667-142.333Q208.872-780.821 252.846-840l21.102 21.102q-39.769 55.077-61.474 118.244t-21.705 130.705q0 38.256 5.256 75.936 5.257 37.679 16 74.526l84.436-84.206 20.103 20.359-118.103 118.103Zm449.488 197.616q-17.411 6.461-36.705 5.885-19.295-.577-37.142-9.116L319.538-288.538l8.616-19.641q4.358-10.616 13.153-16.885 8.795-6.269 20.488-7.5l123.538-13.154L369.23-662.154q-2.769-7.179.539-13.243 3.308-6.064 10.487-8.321 6.667-2.769 12.808.282t8.91 10.231l130.718 358.333-158.923 14.436 214.641 99.513q10.898 5.205 23.692 5.5 12.795.295 24.462-3.654l138.077-50.743q41.718-15.052 60.487-54.577 18.77-39.526 3.718-81.244l-57.102-156q-2.77-7.18-.103-13.064 2.667-5.885 9.846-8.654 7.18-2.769 13.321-.103 6.141 2.667 8.91 9.846l56.436 156.001q20.692 55.307-3.731 107.5Q842-237.923 786.692-218l-138.743 50.385Zm-68.154-254.59-56.411-153.923q-2.769-7.18.539-12.987 3.308-5.808 10.487-8.577 6.667-2.77 12.731.538t8.833 9.974l55.975 153.077-32.154 11.898Zm108.128-40.282-41.974-115.411q-2.77-7.179.282-12.935 3.051-5.757 10.23-8.526 7.18-2.257 13.244.41 6.064 2.667 8.321 9.846l42.641 116-32.744 10.616Zm-8.205 113.795Z"/></svg>