<svg xmlns="http://www.w3.org/2000/svg" height="40" viewBox="0 -960 960 960" width="40"><path fill="#99cc99" d="M440-439.026ZM138.461-160q-24.577 0-41.519-16.942Q80-193.884 80-218.461v-440.975q0-24.539 16.942-41.5 16.942-16.962 41.519-16.962h124.616L336.923-800h218.052v33.846H352.128l-73.769 82.103H138.461q-10.769 0-17.692 7.179t-6.923 17.436v440.975q0 10.769 6.923 17.692t17.692 6.923h603.078q10.769 0 17.692-6.923t6.923-17.692v-336.514H800v336.514q0 24.577-16.961 41.519Q766.077-160 741.539-160H138.461Zm627.693-524.205v-81.949h-81.949V-800h81.949v-82.103H800V-800h82.103v33.846H800v81.949h-33.846ZM439.923-292.872q61.795 0 104.013-42.218t42.218-104.013q0-61.794-42.218-103.935-42.218-42.142-104.013-42.142t-103.936 42.142q-42.141 42.141-42.141 103.935 0 61.795 42.141 104.013t103.936 42.218Zm0-33.846q-47.974 0-80.103-32.205-32.128-32.205-32.128-80.18 0-47.974 32.128-80.102 32.129-32.128 80.103-32.128t80.18 32.128q32.205 32.128 32.205 80.102 0 47.975-32.205 80.18-32.206 32.205-80.18 32.205Z"/></svg>