<svg xmlns="http://www.w3.org/2000/svg" height="40" viewBox="0 -960 960 960" width="40"><path fill="#99cc99" d="M178.615-200q-24.577 0-41.519-16.942-16.942-16.942-16.942-41.519V-670.77q0-24.577 16.942-41.519 16.942-16.942 41.519-16.942h258.462l43.077 43.077h301.539q24.577 0 41.519 16.942 16.942 16.942 16.942 41.519v111.591h-33.846v-111.591q0-9.231-7.692-16.923-7.693-7.692-16.923-7.692H154v393.847q0 9.231 7.692 16.923 7.692 7.692 16.923 7.692h314.719V-200H178.615ZM748-370.897l20.436 19.666-156.641 157.077v44.924h44.41l157.154-157.077 20.872 20.871L668.795-120h-86.231v-85.461L748-370.897Zm86.231 85.461L748-370.897l47.436-47.436q8.641-8.385 20.641-8.385 12 0 19.872 8.385l45.718 45.205q7.872 8.487 7.872 20.436 0 11.948-7.872 20.589l-47.436 46.667ZM154-652.308v418.462-418.462Z"/></svg>