<svg xmlns="http://www.w3.org/2000/svg" height="40" viewBox="0 -960 960 960" width="40"><path fill="#99cc99" d="m101.846-101.846 59.82-205.9q-18.987-40.895-29.891-83.849-10.904-42.955-10.904-87.311 0-74.31 28.22-139.777 28.219-65.468 76.601-113.857 48.381-48.388 113.698-76.514 65.316-28.126 139.452-28.126 74.137 0 139.569 28.206 65.432 28.207 113.945 76.501 48.514 48.295 76.669 113.699 28.155 65.404 28.155 139.64 0 74.237-28.217 139.581t-76.537 113.858q-48.319 48.514-113.755 76.669-65.435 28.155-139.689 28.155-44.657 0-87.499-10.904t-83.737-29.891l-205.9 59.82Zm49.308-49.308 130.575-37.717q15.76-4.154 28.555-3.59 12.796.564 28.075 7.59 33.128 15.23 68.709 23.397 35.581 8.167 71.946 8.167 135.358 0 230.544-95.03 95.186-95.031 95.186-230.533 0-135.502-95.03-230.688-95.03-95.186-230.533-95.186-135.502 0-230.688 94.91-95.186 94.91-95.186 231.099 0 36.314 7.218 71.993 7.218 35.678 24.346 68.278 7 12.833 7.629 27.804.628 14.97-3.653 28.912l-37.693 130.594ZM463.167-340h32.436v-121.538h122.205v-32.436H495.603v-121.693h-32.436v121.693H341.474v32.436h121.693V-340Zm14.859-138.026Z"/></svg>