<svg xmlns="http://www.w3.org/2000/svg" height="40" viewBox="0 -960 960 960" width="40"><path fill="#99cc99" d="M198.461-160q-24.577 0-41.519-16.942Q140-193.884 140-218.461v-523.078q0-24.577 16.942-41.519Q173.884-800 198.461-800h382.667v33.846H198.461q-9.23 0-16.923 7.692-7.692 7.692-7.692 16.923v523.078q0 9.231 7.692 16.923 7.693 7.692 16.923 7.692h523.078q9.231 0 16.923-7.692 7.692-7.692 7.692-16.923v-382.667H780v382.667q0 24.577-16.942 41.519Q746.116-160 721.539-160H198.461Zm121.693-139.025v-33.847H600v33.847H320.154Zm0-122.103v-33.846H600v33.846H320.154Zm0-122.103v-33.846H600v33.846H320.154Zm383.743-97.897v-82.769h-82.769v-33.847h82.769V-840h33.847v82.256H820v33.847h-82.256v82.769h-33.847Z"/></svg>